P3
51 55
255
103 103 103 99 99 99 95 95 95 90 90 90 87 87 87 84 84 84 82 82 82 80 80 80 78 78 78 77 77 77 77 77 77 78 78 78 80 80 80 83 83 83 87 87 87 90 90 90 94 94 94 91 91 91 88 88 88 82 82 82 77 77 77 73 73 73 70 70 70 67 67 67 64 64 64 64 64 64 64 64 64 71 71 71 75 75 75 80 80 80 81 81 81 80 80 80 76 76 76 71 71 71 64 64 64 61 61 61 58 58 58 60 60 60 60 60 60 67 67 67 70 70 70 72 72 72 74 74 74 79 79 79 86 86 86 97 97 97 114 114 114 147 147 147 180 180 180 194 194 194 204 204 204 
98 98 98 95 95 95 91 91 91 87 87 87 84 84 84 82 82 82 81 81 81 79 79 79 79 79 79 80 80 80 81 81 81 84 84 84 88 88 88 92 92 92 96 96 96 99 99 99 100 100 100 98 98 98 93 93 93 88 88 88 84 84 84 80 80 80 78 78 78 75 75 75 75 75 75 78 78 78 84 84 84 91 91 91 99 99 99 101 101 101 99 99 99 95 95 95 89 89 89 83 83 83 77 77 77 73 73 73 73 73 73 79 79 79 87 87 87 90 90 90 90 90 90 88 88 88 86 86 86 86 86 86 89 89 89 99 99 99 117 117 117 149 149 149 180 180 180 202 202 202 215 215 215 
97 97 97 93 93 93 90 90 90 86 86 86 83 83 83 81 81 81 79 79 79 79 79 79 79 79 79 81 81 81 84 84 84 87 87 87 92 92 92 96 96 96 100 100 100 101 101 101 101 101 101 98 98 98 95 95 95 92 92 92 89 89 89 87 87 87 86 86 86 83 83 83 85 85 85 88 88 88 99 99 99 106 106 106 118 118 118 115 115 115 114 114 114 107 107 107 101 101 101 96 96 96 93 93 93 88 88 88 89 89 89 100 100 100 115 115 115 112 112 112 110 110 110 104 104 104 100 100 100 99 99 99 101 101 101 110 110 110 124 124 124 155 155 155 185 185 185 209 209 209 224 224 224 
98 98 98 94 94 94 90 90 90 88 88 88 85 85 85 83 83 83 80 80 80 80 80 80 80 80 80 81 81 81 84 84 84 87 87 87 91 91 91 95 95 95 98 98 98 99 99 99 98 98 98 96 96 96 95 95 95 95 95 95 95 95 95 95 95 95 93 93 93 89 89 89 87 87 87 89 89 89 95 95 95 103 103 103 111 111 111 115 115 115 115 115 115 113 113 113 110 110 110 107 107 107 104 104 104 102 102 102 104 104 104 112 112 112 120 120 120 121 121 121 119 119 119 116 116 116 115 115 115 117 117 117 122 122 122 132 132 132 148 148 148 172 172 172 198 198 198 220 220 220 236 236 236 
102 102 102 99 99 99 95 95 95 93 93 93 90 90 90 87 87 87 83 83 83 82 82 82 81 81 81 82 82 82 84 84 84 87 87 87 89 89 89 93 93 93 94 94 94 96 96 96 95 95 95 95 95 95 96 96 96 101 101 101 104 104 104 108 108 108 106 106 106 102 102 102 94 94 94 96 96 96 94 94 94 102 102 102 103 103 103 111 111 111 114 114 114 115 115 115 115 115 115 114 114 114 113 113 113 111 111 111 112 112 112 116 116 116 120 120 120 122 122 122 123 123 123 125 125 125 129 129 129 135 135 135 144 144 144 155 155 155 172 172 172 190 190 190 212 212 212 230 230 230 244 244 244 
110 110 110 107 107 107 105 105 105 101 101 101 97 97 97 92 92 92 88 88 88 84 84 84 83 83 83 83 83 83 84 84 84 86 86 86 89 89 89 92 92 92 94 94 94 97 97 97 99 99 99 101 101 101 105 105 105 114 114 114 122 122 122 129 129 129 130 130 130 127 127 127 123 123 123 121 121 121 120 120 120 119 119 119 118 118 118 118 118 118 118 118 118 118 118 118 118 118 118 117 117 117 116 116 116 114 114 114 114 114 114 116 116 116 118 118 118 122 122 122 125 125 125 131 131 131 139 139 139 149 149 149 159 159 159 170 170 170 184 184 184 199 199 199 215 215 215 230 230 230 241 241 241 
118 118 118 116 116 116 115 115 115 110 110 110 104 104 104 97 97 97 91 91 91 87 87 87 85 85 85 84 84 84 85 85 85 87 87 87 90 90 90 93 93 93 97 97 97 102 102 102 106 106 106 111 111 111 119 119 119 130 130 130 143 143 143 151 151 151 157 157 157 154 154 154 153 153 153 149 149 149 150 150 150 142 142 142 138 138 138 129 129 129 124 124 124 121 121 121 120 120 120 119 119 119 117 117 117 114 114 114 113 113 113 113 113 113 116 116 116 120 120 120 126 126 126 136 136 136 148 148 148 160 160 160 171 171 171 182 182 182 191 191 191 203 203 203 214 214 214 226 226 226 235 235 235 
122 122 122 121 121 121 119 119 119 114 114 114 107 107 107 100 100 100 94 94 94 90 90 90 87 87 87 86 86 86 87 87 87 89 89 89 92 92 92 97 97 97 103 103 103 109 109 109 117 117 117 125 125 125 135 135 135 147 147 147 159 159 159 167 167 167 172 172 172 171 171 171 168 168 168 164 164 164 160 160 160 152 152 152 144 144 144 136 136 136 129 129 129 125 125 125 122 122 122 120 120 120 117 117 117 113 113 113 111 111 111 111 111 111 113 113 113 117 117 117 126 126 126 141 141 141 157 157 157 172 172 172 183 183 183 192 192 192 199 199 199 206 206 206 214 214 214 222 222 222 229 229 229 
122 122 122 122 122 122 120 120 120 114 114 114 108 108 108 101 101 101 95 95 95 92 92 92 89 89 89 89 89 89 90 90 90 93 93 93 97 97 97 103 103 103 110 110 110 119 119 119 128 128 128 139 139 139 149 149 149 160 160 160 171 171 171 178 178 178 181 181 181 179 179 179 173 173 173 167 167 167 160 160 160 152 152 152 143 143 143 136 136 136 131 131 131 127 127 127 124 124 124 120 120 120 117 117 117 114 114 114 113 113 113 111 111 111 112 112 112 117 117 117 128 128 128 147 147 147 167 167 167 182 182 182 193 193 193 200 200 200 207 207 207 210 210 210 214 214 214 220 220 220 224 224 224 
120 120 120 118 118 118 115 115 115 110 110 110 105 105 105 100 100 100 96 96 96 93 93 93 92 92 92 92 92 92 94 94 94 98 98 98 103 103 103 110 110 110 119 119 119 129 129 129 140 140 140 151 151 151 162 162 162 170 170 170 177 177 177 182 182 182 183 183 183 179 179 179 173 173 173 165 165 165 155 155 155 146 146 146 137 137 137 132 132 132 128 128 128 125 125 125 122 122 122 121 121 121 120 120 120 120 120 120 119 119 119 118 118 118 118 118 118 124 124 124 136 136 136 155 155 155 175 175 175 189 189 189 199 199 199 206 206 206 211 211 211 214 214 214 217 217 217 220 220 220 223 223 223 
117 117 117 113 113 113 109 109 109 105 105 105 101 101 101 98 98 98 96 96 96 95 95 95 95 95 95 97 97 97 99 99 99 104 104 104 110 110 110 118 118 118 127 127 127 137 137 137 149 149 149 159 159 159 169 169 169 175 175 175 180 180 180 182 182 182 181 181 181 177 177 177 170 170 170 161 161 161 150 150 150 140 140 140 131 131 131 128 128 128 126 126 126 125 125 125 124 124 124 126 126 126 129 129 129 134 134 134 135 135 135 137 137 137 135 135 135 143 143 143 150 150 150 169 169 169 185 185 185 195 195 195 202 202 202 208 208 208 213 213 213 217 217 217 220 220 220 221 221 221 223 223 223 
112 112 112 108 108 108 105 105 105 101 101 101 98 98 98 97 97 97 96 96 96 97 97 97 99 99 99 102 102 102 106 106 106 111 111 111 118 118 118 125 125 125 134 134 134 143 143 143 152 152 152 161 161 161 169 169 169 176 176 176 180 180 180 181 181 181 179 179 179 175 175 175 168 168 168 160 160 160 151 151 151 142 142 142 134 134 134 131 131 131 131 131 131 132 132 132 135 135 135 142 142 142 150 150 150 159 159 159 165 165 165 170 170 170 173 173 173 177 177 177 182 182 182 188 188 188 194 194 194 200 200 200 205 205 205 210 210 210 214 214 214 217 217 217 219 219 219 220 220 220 220 220 220 
108 108 108 105 105 105 102 102 102 100 100 100 97 97 97 98 98 98 98 98 98 101 101 101 104 104 104 109 109 109 114 114 114 120 120 120 126 126 126 132 132 132 139 139 139 145 145 145 152 152 152 160 160 160 167 167 167 175 175 175 180 180 180 181 181 181 178 178 178 173 173 173 167 167 167 161 161 161 154 154 154 146 146 146 141 141 141 139 139 139 142 142 142 148 148 148 155 155 155 168 168 168 178 178 178 190 190 190 200 200 200 205 205 205 210 210 210 209 209 209 211 211 211 205 205 205 203 203 203 204 204 204 207 207 207 210 210 210 213 213 213 214 214 214 216 216 216 216 216 216 216 216 216 
106 106 106 104 104 104 103 103 103 103 103 103 102 102 102 102 102 102 104 104 104 106 106 106 111 111 111 116 116 116 123 123 123 128 128 128 133 133 133 135 135 135 137 137 137 143 143 143 151 151 151 161 161 161 169 169 169 176 176 176 180 180 180 181 181 181 178 178 178 174 174 174 168 168 168 162 162 162 156 156 156 150 150 150 148 148 148 150 150 150 159 159 159 174 174 174 190 190 190 202 202 202 212 212 212 220 220 220 227 227 227 229 229 229 229 229 229 226 226 226 221 221 221 214 214 214 208 208 208 207 207 207 207 207 207 208 208 208 209 209 209 209 209 209 208 208 208 208 208 208 207 207 207 
104 104 104 105 105 105 107 107 107 108 108 108 109 109 109 109 109 109 109 109 109 112 112 112 117 117 117 123 123 123 130 130 130 136 136 136 139 139 139 138 138 138 136 136 136 144 144 144 152 152 152 164 164 164 174 174 174 180 180 180 183 183 183 183 183 183 180 180 180 176 176 176 169 169 169 164 164 164 159 159 159 157 157 157 158 158 158 168 168 168 180 180 180 203 203 203 225 225 225 234 234 234 241 241 241 242 242 242 244 244 244 239 239 239 235 235 235 229 229 229 223 223 223 216 216 216 210 210 210 207 207 207 206 206 206 205 205 205 204 204 204 202 202 202 199 199 199 198 198 198 197 197 197 
104 104 104 108 108 108 113 113 113 115 115 115 116 116 116 114 114 114 113 113 113 116 116 116 122 122 122 128 128 128 135 135 135 140 140 140 143 143 143 144 144 144 145 145 145 151 151 151 160 160 160 170 170 170 179 179 179 185 185 185 188 188 188 188 188 188 185 185 185 180 180 180 174 174 174 167 167 167 164 164 164 168 168 168 179 179 179 193 193 193 211 211 211 228 228 228 242 242 242 249 249 249 251 251 251 248 248 248 243 243 243 236 236 236 230 230 230 224 224 224 219 219 219 214 214 214 209 209 209 206 206 206 204 204 204 202 202 202 199 199 199 196 196 196 192 192 192 190 190 190 187 187 187 
103 103 103 109 109 109 116 116 116 119 119 119 120 120 120 115 115 115 113 113 113 116 116 116 124 124 124 129 129 129 136 136 136 141 141 141 146 146 146 149 149 149 154 154 154 160 160 160 169 169 169 177 177 177 185 185 185 190 190 190 192 192 192 190 190 190 186 186 186 181 181 181 178 178 178 173 173 173 172 172 172 183 183 183 200 200 200 217 217 217 236 236 236 245 245 245 251 251 251 254 254 254 251 251 251 245 245 245 236 236 236 228 228 228 220 220 220 218 218 218 215 215 215 211 211 211 206 206 206 204 204 204 201 201 201 199 199 199 196 196 196 192 192 192 187 187 187 182 182 182 177 177 177 
101 101 101 106 106 106 112 112 112 114 114 114 114 114 114 110 110 110 108 108 108 111 111 111 117 117 117 125 125 125 134 134 134 142 142 142 147 147 147 152 152 152 158 158 158 165 165 165 174 174 174 182 182 182 189 189 189 193 193 193 192 192 192 187 187 187 180 180 180 174 174 174 174 174 174 180 180 180 190 190 190 200 200 200 213 213 213 229 229 229 243 243 243 251 251 251 255 255 255 254 254 254 250 250 250 242 242 242 233 233 233 224 224 224 217 217 217 213 213 213 210 210 210 207 207 207 204 204 204 201 201 201 199 199 199 198 198 198 196 196 196 192 192 192 186 186 186 177 177 177 167 167 167 
99 99 99 104 104 104 106 106 106 108 108 108 106 106 106 103 103 103 103 103 103 106 106 106 112 112 112 124 124 124 134 134 134 142 142 142 148 148 148 153 153 153 158 158 158 165 165 165 175 175 175 184 184 184 191 191 191 192 192 192 188 188 188 176 176 176 167 167 167 164 164 164 169 169 169 188 188 188 208 208 208 213 213 213 219 219 219 232 232 232 243 243 243 250 250 250 252 252 252 251 251 251 247 247 247 239 239 239 230 230 230 222 222 222 216 216 216 211 211 211 207 207 207 204 204 204 201 201 201 199 199 199 197 197 197 197 197 197 195 195 195 191 191 191 185 185 185 172 172 172 158 158 158 
101 101 101 105 105 105 107 107 107 104 104 104 99 99 99 99 99 99 102 102 102 110 110 110 120 120 120 130 130 130 138 138 138 144 144 144 148 148 148 151 151 151 155 155 155 162 162 162 172 172 172 184 184 184 191 191 191 187 187 187 174 174 174 158 158 158 150 150 150 158 158 158 177 177 177 197 197 197 213 213 213 219 219 219 223 223 223 231 231 231 240 240 240 245 245 245 247 247 247 246 246 246 242 242 242 234 234 234 226 226 226 220 220 220 214 214 214 208 208 208 204 204 204 200 200 200 197 197 197 195 195 195 194 194 194 194 194 194 193 193 193 188 188 188 179 179 179 166 166 166 150 150 150 
103 103 103 109 109 109 112 112 112 107 107 107 101 101 101 108 108 108 114 114 114 126 126 126 135 135 135 141 141 141 145 145 145 148 148 148 149 149 149 150 150 150 152 152 152 159 159 159 167 167 167 178 178 178 187 187 187 176 176 176 162 162 162 147 147 147 137 137 137 162 162 162 189 189 189 205 205 205 215 215 215 220 220 220 221 221 221 230 230 230 236 236 236 240 240 240 239 239 239 239 239 239 235 235 235 228 228 228 220 220 220 216 216 216 211 211 211 206 206 206 200 200 200 197 197 197 194 194 194 191 191 191 189 189 189 188 188 188 186 186 186 180 180 180 171 171 171 157 157 157 143 143 143 
105 105 105 112 112 112 118 118 118 119 119 119 123 123 123 135 135 135 148 148 148 153 153 153 154 154 154 153 153 153 152 152 152 151 151 151 151 151 151 152 152 152 154 154 154 158 158 158 164 164 164 168 168 168 168 168 168 162 162 162 155 155 155 153 153 153 160 160 160 178 178 178 198 198 198 209 209 209 214 214 214 218 218 218 223 223 223 228 228 228 233 233 233 233 233 233 231 231 231 229 229 229 226 226 226 220 220 220 215 215 215 211 211 211 207 207 207 201 201 201 196 196 196 193 193 193 190 190 190 186 186 186 182 182 182 178 178 178 173 173 173 166 166 166 157 157 157 147 147 147 136 136 136 
104 104 104 114 114 114 125 125 125 133 133 133 145 145 145 164 164 164 185 185 185 178 178 178 169 169 169 162 162 162 157 157 157 153 153 153 152 152 152 152 152 152 155 155 155 157 157 157 160 160 160 157 157 157 153 153 153 154 154 154 156 156 156 168 168 168 185 185 185 196 196 196 206 206 206 209 209 209 211 211 211 215 215 215 220 220 220 223 223 223 226 226 226 223 223 223 220 220 220 216 216 216 214 214 214 209 209 209 205 205 205 201 201 201 199 199 199 194 194 194 190 190 190 187 187 187 185 185 185 178 178 178 172 172 172 165 165 165 158 158 158 150 150 150 141 141 141 134 134 134 128 128 128 
102 102 102 113 113 113 127 127 127 142 142 142 159 159 159 178 178 178 190 190 190 187 187 187 176 176 176 165 165 165 156 156 156 150 150 150 148 148 148 148 148 148 150 150 150 152 152 152 153 153 153 153 153 153 153 153 153 159 159 159 168 168 168 181 181 181 195 195 195 202 202 202 205 205 205 207 207 207 208 208 208 208 208 208 209 209 209 210 210 210 209 209 209 206 206 206 203 203 203 199 199 199 196 196 196 193 193 193 190 190 190 187 187 187 184 184 184 181 181 181 178 178 178 175 175 175 172 172 172 166 166 166 159 159 159 151 151 151 143 143 143 135 135 135 128 128 128 122 122 122 117 117 117 
102 102 102 115 115 115 129 129 129 147 147 147 164 164 164 180 180 180 187 187 187 184 184 184 174 174 174 162 162 162 152 152 152 146 146 146 143 143 143 143 143 143 145 145 145 147 147 147 149 149 149 153 153 153 159 159 159 167 167 167 179 179 179 188 188 188 196 196 196 199 199 199 199 199 199 200 200 200 201 201 201 198 198 198 195 195 195 192 192 192 189 189 189 186 186 186 183 183 183 180 180 180 177 177 177 174 174 174 172 172 172 170 170 170 167 167 167 165 165 165 163 163 163 160 160 160 156 156 156 151 151 151 145 145 145 137 137 137 129 129 129 122 122 122 115 115 115 110 110 110 105 105 105 
111 111 111 123 123 123 137 137 137 153 153 153 167 167 167 177 177 177 180 180 180 175 175 175 164 164 164 155 155 155 148 148 148 142 142 142 139 139 139 139 139 139 141 141 141 144 144 144 149 149 149 155 155 155 163 163 163 170 170 170 179 179 179 185 185 185 189 189 189 190 190 190 189 189 189 188 188 188 187 187 187 184 184 184 179 179 179 175 175 175 171 171 171 168 168 168 165 165 165 162 162 162 159 159 159 157 157 157 155 155 155 154 154 154 152 152 152 150 150 150 148 148 148 145 145 145 141 141 141 136 136 136 131 131 131 124 124 124 117 117 117 110 110 110 104 104 104 99 99 99 95 95 95 
123 123 123 133 133 133 145 145 145 156 156 156 166 166 166 172 172 172 173 173 173 163 163 163 151 151 151 146 146 146 143 143 143 139 139 139 136 136 136 136 136 136 138 138 138 141 141 141 148 148 148 154 154 154 163 163 163 168 168 168 173 173 173 176 176 176 178 178 178 178 178 178 176 176 176 173 173 173 170 170 170 167 167 167 164 164 164 160 160 160 156 156 156 153 153 153 150 150 150 147 147 147 144 144 144 142 142 142 141 141 141 141 141 141 139 139 139 137 137 137 134 134 134 131 131 131 127 127 127 123 123 123 119 119 119 113 113 113 107 107 107 101 101 101 95 95 95 91 91 91 87 87 87 
134 134 134 142 142 142 149 149 149 157 157 157 162 162 162 164 164 164 161 161 161 152 152 152 143 143 143 138 138 138 137 137 137 135 135 135 134 134 134 133 133 133 134 134 134 137 137 137 141 141 141 148 148 148 155 155 155 161 161 161 164 164 164 166 166 166 165 165 165 163 163 163 160 160 160 156 156 156 153 153 153 151 151 151 149 149 149 147 147 147 144 144 144 141 141 141 138 138 138 135 135 135 133 133 133 132 132 132 131 131 131 131 131 131 130 130 130 127 127 127 124 124 124 121 121 121 118 118 118 114 114 114 110 110 110 105 105 105 100 100 100 94 94 94 89 89 89 85 85 85 82 82 82 
141 141 141 146 146 146 150 150 150 154 154 154 157 157 157 156 156 156 151 151 151 143 143 143 135 135 135 133 133 133 133 133 133 132 132 132 132 132 132 132 132 132 132 132 132 133 133 133 135 135 135 142 142 142 147 147 147 153 153 153 155 155 155 155 155 155 153 153 153 150 150 150 145 145 145 141 141 141 138 138 138 137 137 137 136 136 136 136 136 136 135 135 135 132 132 132 129 129 129 127 127 127 125 125 125 125 125 125 124 124 124 124 124 124 124 124 124 121 121 121 117 117 117 115 115 115 112 112 112 109 109 109 105 105 105 101 101 101 96 96 96 90 90 90 84 84 84 81 81 81 78 78 78 
137 137 137 144 144 144 148 148 148 151 151 151 151 151 151 148 148 148 143 143 143 137 137 137 132 132 132 131 131 131 131 131 131 131 131 131 131 131 131 132 132 132 133 133 133 134 134 134 137 137 137 141 141 141 145 145 145 148 148 148 149 149 149 147 147 147 144 144 144 140 140 140 135 135 135 130 130 130 127 127 127 126 126 126 125 125 125 125 125 125 125 125 125 124 124 124 122 122 122 121 121 121 121 121 121 120 120 120 120 120 120 120 120 120 119 119 119 116 116 116 114 114 114 113 113 113 111 111 111 108 108 108 105 105 105 101 101 101 96 96 96 90 90 90 84 84 84 79 79 79 76 76 76 
134 134 134 141 141 141 145 145 145 147 147 147 146 146 146 143 143 143 139 139 139 134 134 134 131 131 131 131 131 131 131 131 131 131 131 131 132 132 132 134 134 134 135 135 135 138 138 138 140 140 140 143 143 143 145 145 145 146 146 146 145 145 145 142 142 142 137 137 137 132 132 132 127 127 127 122 122 122 119 119 119 118 118 118 116 116 116 116 116 116 116 116 116 116 116 116 116 116 116 117 117 117 118 118 118 118 118 118 118 118 118 117 117 117 116 116 116 114 114 114 113 113 113 112 112 112 112 112 112 110 110 110 107 107 107 103 103 103 98 98 98 92 92 92 86 86 86 80 80 80 75 75 75 
136 136 136 141 141 141 144 144 144 145 145 145 143 143 143 140 140 140 137 137 137 134 134 134 133 133 133 133 133 133 133 133 133 134 134 134 135 135 135 136 136 136 139 139 139 141 141 141 143 143 143 145 145 145 145 145 145 144 144 144 141 141 141 137 137 137 131 131 131 125 125 125 120 120 120 116 116 116 114 114 114 112 112 112 110 110 110 109 109 109 109 109 109 110 110 110 111 111 111 112 112 112 114 114 114 115 115 115 115 115 115 115 115 115 114 114 114 114 114 114 113 113 113 113 113 113 112 112 112 111 111 111 109 109 109 105 105 105 101 101 101 95 95 95 88 88 88 81 81 81 75 75 75 
141 141 141 143 143 143 144 144 144 144 144 144 142 142 142 139 139 139 137 137 137 136 136 136 137 137 137 138 138 138 138 138 138 138 138 138 138 138 138 140 140 140 142 142 142 144 144 144 145 145 145 146 146 146 145 145 145 142 142 142 138 138 138 133 133 133 126 126 126 119 119 119 113 113 113 111 111 111 109 109 109 106 106 106 104 104 104 103 103 103 103 103 103 104 104 104 106 106 106 108 108 108 110 110 110 111 111 111 113 113 113 113 113 113 113 113 113 113 113 113 113 113 113 112 112 112 112 112 112 111 111 111 110 110 110 107 107 107 102 102 102 96 96 96 89 89 89 81 81 81 75 75 75 
144 144 144 145 145 145 145 145 145 144 144 144 142 142 142 140 140 140 139 139 139 140 140 140 142 142 142 144 144 144 146 146 146 145 145 145 144 144 144 143 143 143 144 144 144 145 145 145 145 145 145 145 145 145 143 143 143 140 140 140 135 135 135 129 129 129 122 122 122 115 115 115 109 109 109 106 106 106 103 103 103 101 101 101 98 98 98 98 98 98 98 98 98 99 99 99 101 101 101 104 104 104 106 106 106 108 108 108 110 110 110 111 111 111 111 111 111 111 111 111 110 110 110 109 109 109 109 109 109 108 108 108 107 107 107 105 105 105 101 101 101 93 93 93 85 85 85 78 78 78 73 73 73 
147 147 147 147 147 147 146 146 146 145 145 145 143 143 143 142 142 142 141 141 141 142 142 142 145 145 145 148 148 148 152 152 152 148 148 148 146 146 146 144 144 144 144 144 144 144 144 144 144 144 144 143 143 143 140 140 140 137 137 137 132 132 132 125 125 125 119 119 119 112 112 112 106 106 106 101 101 101 98 98 98 95 95 95 94 94 94 93 93 93 94 94 94 96 96 96 98 98 98 100 100 100 102 102 102 104 104 104 106 106 106 107 107 107 108 108 108 107 107 107 106 106 106 104 104 104 104 104 104 102 102 102 102 102 102 101 101 101 98 98 98 88 88 88 77 77 77 72 72 72 70 70 70 
148 148 148 147 147 147 146 146 146 145 145 145 144 144 144 143 143 143 143 143 143 142 142 142 143 143 143 144 144 144 144 144 144 143 143 143 142 142 142 141 141 141 140 140 140 140 140 140 139 139 139 138 138 138 136 136 136 132 132 132 127 127 127 121 121 121 115 115 115 108 108 108 102 102 102 97 97 97 94 94 94 92 92 92 91 91 91 91 91 91 92 92 92 93 93 93 95 95 95 97 97 97 99 99 99 101 101 101 102 102 102 102 102 102 102 102 102 101 101 101 100 100 100 98 98 98 96 96 96 96 96 96 95 95 95 94 94 94 89 89 89 80 80 80 70 70 70 65 65 65 62 62 62 
147 147 147 146 146 146 146 146 146 145 145 145 145 145 145 145 145 145 144 144 144 142 142 142 139 139 139 137 137 137 134 134 134 135 135 135 135 135 135 135 135 135 135 135 135 134 134 134 133 133 133 132 132 132 130 130 130 127 127 127 123 123 123 117 117 117 111 111 111 104 104 104 98 98 98 94 94 94 91 91 91 90 90 90 90 90 90 90 90 90 90 90 90 92 92 92 93 93 93 94 94 94 96 96 96 97 97 97 98 98 98 98 98 98 97 97 97 97 97 97 95 95 95 94 94 94 92 92 92 92 92 92 89 89 89 87 87 87 81 81 81 72 72 72 62 62 62 58 58 58 55 55 55 
146 146 146 146 146 146 145 145 145 146 146 146 147 147 147 147 147 147 146 146 146 143 143 143 138 138 138 134 134 134 131 131 131 130 130 130 129 129 129 129 129 129 128 128 128 127 127 127 126 126 126 125 125 125 123 123 123 121 121 121 117 117 117 113 113 113 107 107 107 101 101 101 95 95 95 92 92 92 90 90 90 89 89 89 89 89 89 89 89 89 90 90 90 91 91 91 91 91 91 92 92 92 93 93 93 94 94 94 95 95 95 95 95 95 95 95 95 94 94 94 94 94 94 96 96 96 96 96 96 93 93 93 89 89 89 82 82 82 74 74 74 66 66 66 58 58 58 55 55 55 53 53 53 
146 146 146 144 144 144 145 145 145 147 147 147 149 149 149 151 151 151 150 150 150 146 146 146 139 139 139 133 133 133 128 128 128 126 126 126 125 125 125 123 123 123 121 121 121 120 120 120 119 119 119 118 118 118 117 117 117 115 115 115 113 113 113 109 109 109 104 104 104 98 98 98 93 93 93 90 90 90 89 89 89 89 89 89 89 89 89 89 89 89 90 90 90 90 90 90 90 90 90 90 90 90 90 90 90 93 93 93 94 94 94 93 93 93 93 93 93 93 93 93 95 95 95 100 100 100 102 102 102 96 96 96 88 88 88 78 78 78 69 69 69 61 61 61 55 55 55 53 53 53 52 52 52 
144 144 144 143 143 143 143 143 143 147 147 147 152 152 152 156 156 156 156 156 156 150 150 150 140 140 140 132 132 132 126 126 126 123 123 123 121 121 121 118 118 118 116 116 116 114 114 114 113 113 113 112 112 112 112 112 112 111 111 111 109 109 109 106 106 106 101 101 101 96 96 96 92 92 92 89 89 89 89 89 89 89 89 89 89 89 89 90 90 90 90 90 90 90 90 90 90 90 90 90 90 90 91 91 91 93 93 93 93 93 93 90 90 90 88 88 88 92 92 92 98 98 98 103 103 103 102 102 102 93 93 93 80 80 80 70 70 70 62 62 62 57 57 57 53 53 53 49 49 49 45 45 45 
143 143 143 141 141 141 140 140 140 146 146 146 152 152 152 158 158 158 161 161 161 152 152 152 140 140 140 131 131 131 124 124 124 120 120 120 118 118 118 114 114 114 111 111 111 109 109 109 108 108 108 108 108 108 108 108 108 107 107 107 106 106 106 103 103 103 100 100 100 95 95 95 90 90 90 89 89 89 89 89 89 89 89 89 89 89 89 90 90 90 90 90 90 89 89 89 89 89 89 89 89 89 90 90 90 91 91 91 93 93 93 87 87 87 82 82 82 89 89 89 97 97 97 101 101 101 101 101 101 87 87 87 70 70 70 62 62 62 55 55 55 52 52 52 50 50 50 45 45 45 39 39 39 
143 143 143 141 141 141 140 140 140 144 144 144 150 150 150 155 155 155 156 156 156 149 149 149 138 138 138 129 129 129 122 122 122 118 118 118 115 115 115 111 111 111 108 108 108 105 105 105 104 104 104 104 104 104 104 104 104 104 104 104 102 102 102 100 100 100 97 97 97 93 93 93 89 89 89 88 88 88 88 88 88 89 89 89 90 90 90 90 90 90 90 90 90 88 88 88 86 86 86 86 86 86 86 86 86 86 86 86 85 85 85 82 82 82 82 82 82 86 86 86 91 91 91 93 93 93 90 90 90 80 80 80 68 68 68 58 58 58 51 51 51 47 47 47 44 44 44 40 40 40 37 37 37 
144 144 144 140 140 140 139 139 139 141 141 141 145 145 145 148 148 148 149 149 149 144 144 144 136 136 136 129 129 129 122 122 122 117 117 117 113 113 113 109 109 109 105 105 105 102 102 102 100 100 100 100 100 100 100 100 100 99 99 99 98 98 98 96 96 96 94 94 94 91 91 91 88 88 88 87 87 87 88 88 88 89 89 89 89 89 89 89 89 89 89 89 89 86 86 86 82 82 82 82 82 82 82 82 82 79 79 79 77 77 77 77 77 77 79 79 79 81 81 81 83 83 83 82 82 82 78 78 78 72 72 72 65 65 65 55 55 55 47 47 47 43 43 43 40 40 40 37 37 37 35 35 35 
142 142 142 139 139 139 138 138 138 138 138 138 139 139 139 141 141 141 141 141 141 139 139 139 135 135 135 130 130 130 124 124 124 119 119 119 114 114 114 109 109 109 104 104 104 101 101 101 98 98 98 96 96 96 95 95 95 93 93 93 92 92 92 91 91 91 89 89 89 88 88 88 86 86 86 86 86 86 87 87 87 87 87 87 87 87 87 86 86 86 85 85 85 82 82 82 79 79 79 78 78 78 76 76 76 74 74 74 72 72 72 72 72 72 73 73 73 74 74 74 75 75 75 73 73 73 70 70 70 64 64 64 57 57 57 49 49 49 43 43 43 39 39 39 37 37 37 35 35 35 32 32 32 
140 140 140 138 138 138 135 135 135 134 134 134 134 134 134 134 134 134 135 135 135 135 135 135 134 134 134 130 130 130 126 126 126 120 120 120 115 115 115 109 109 109 104 104 104 100 100 100 97 97 97 93 93 93 90 90 90 89 89 89 87 87 87 86 86 86 84 84 84 85 85 85 85 85 85 85 85 85 85 85 85 85 85 85 84 84 84 83 83 83 81 81 81 79 79 79 77 77 77 75 75 75 72 72 72 70 70 70 69 69 69 68 68 68 67 67 67 69 69 69 69 69 69 68 68 68 65 65 65 58 58 58 50 50 50 43 43 43 38 38 38 36 36 36 36 36 36 33 33 33 30 30 30 
139 139 139 136 136 136 133 133 133 131 131 131 130 130 130 129 129 129 129 129 129 129 129 129 128 128 128 126 126 126 122 122 122 117 117 117 113 113 113 108 108 108 104 104 104 101 101 101 97 97 97 93 93 93 89 89 89 86 86 86 84 84 84 83 83 83 83 83 83 83 83 83 83 83 83 84 84 84 84 84 84 83 83 83 82 82 82 81 81 81 79 79 79 77 77 77 76 76 76 74 74 74 71 71 71 69 69 69 68 68 68 66 66 66 65 65 65 66 66 66 67 67 67 66 66 66 63 63 63 57 57 57 48 48 48 41 41 41 35 35 35 33 33 33 32 32 32 29 29 29 27 27 27 
139 139 139 135 135 135 132 132 132 129 129 129 127 127 127 125 125 125 124 124 124 123 123 123 122 122 122 120 120 120 116 116 116 113 113 113 109 109 109 106 106 106 104 104 104 101 101 101 97 97 97 93 93 93 88 88 88 86 86 86 84 84 84 83 83 83 82 82 82 82 82 82 82 82 82 82 82 82 82 82 82 82 82 82 81 81 81 79 79 79 77 77 77 76 76 76 76 76 76 74 74 74 72 72 72 70 70 70 69 69 69 67 67 67 66 66 66 66 66 66 67 67 67 67 67 67 65 65 65 60 60 60 51 51 51 43 43 43 34 34 34 31 31 31 28 28 28 26 26 26 23 23 23 
138 138 138 134 134 134 130 130 130 127 127 127 125 125 125 122 122 122 120 120 120 118 118 118 116 116 116 113 113 113 111 111 111 108 108 108 106 106 106 104 104 104 102 102 102 100 100 100 97 97 97 93 93 93 90 90 90 87 87 87 85 85 85 83 83 83 82 82 82 81 81 81 81 81 81 81 81 81 81 81 81 80 80 80 79 79 79 78 78 78 77 77 77 76 76 76 75 75 75 75 75 75 74 74 74 73 73 73 71 71 71 69 69 69 67 67 67 67 67 67 67 67 67 68 68 68 68 68 68 65 65 65 60 60 60 49 49 49 38 38 38 30 30 30 25 25 25 22 22 22 19 19 19 
137 137 137 133 133 133 129 129 129 126 126 126 123 123 123 121 121 121 118 118 118 115 115 115 112 112 112 109 109 109 106 106 106 104 104 104 102 102 102 101 101 101 99 99 99 98 98 98 96 96 96 93 93 93 90 90 90 87 87 87 85 85 85 83 83 83 81 81 81 80 80 80 79 79 79 80 80 80 79 79 79 79 79 79 78 78 78 77 77 77 77 77 77 76 76 76 76 76 76 76 76 76 76 76 76 77 77 77 76 76 76 74 74 74 70 70 70 70 70 70 70 70 70 70 70 70 69 69 69 68 68 68 66 66 66 51 51 51 40 40 40 31 31 31 24 24 24 20 20 20 15 15 15 
136 136 136 133 133 133 129 129 129 127 127 127 124 124 124 122 122 122 119 119 119 116 116 116 112 112 112 108 108 108 104 104 104 101 101 101 99 99 99 98 98 98 96 96 96 95 95 95 93 93 93 91 91 91 89 89 89 87 87 87 85 85 85 83 83 83 81 81 81 80 80 80 79 79 79 79 79 79 79 79 79 79 79 79 78 78 78 77 77 77 77 77 77 77 77 77 77 77 77 78 78 78 79 79 79 81 81 81 82 82 82 82 82 82 80 80 80 78 78 78 75 75 75 73 73 73 68 68 68 62 62 62 53 53 53 43 43 43 35 35 35 31 31 31 27 27 27 20 20 20 13 13 13 
136 136 136 133 133 133 130 130 130 127 127 127 125 125 125 124 124 124 122 122 122 118 118 118 114 114 114 108 108 108 103 103 103 99 99 99 97 97 97 95 95 95 93 93 93 92 92 92 90 90 90 89 89 89 87 87 87 85 85 85 84 84 84 82 82 82 81 81 81 80 80 80 80 80 80 80 80 80 80 80 80 79 79 79 79 79 79 78 78 78 78 78 78 78 78 78 78 78 78 79 79 79 81 81 81 84 84 84 87 87 87 86 86 86 86 86 86 81 81 81 78 78 78 73 73 73 65 65 65 52 52 52 37 37 37 31 31 31 28 28 28 29 29 29 29 29 29 19 19 19 10 10 10 
137 137 137 134 134 134 131 131 131 128 128 128 127 127 127 126 126 126 124 124 124 120 120 120 115 115 115 109 109 109 103 103 103 98 98 98 95 95 95 92 92 92 91 91 91 89 89 89 88 88 88 86 86 86 85 85 85 84 84 84 83 83 83 82 82 82 81 81 81 80 80 80 80 80 80 80 80 80 81 81 81 81 81 81 80 80 80 80 80 80 79 79 79 79 79 79 79 79 79 79 79 79 81 81 81 83 83 83 83 83 83 80 80 80 77 77 77 73 73 73 71 71 71 67 67 67 59 59 59 44 44 44 29 29 29 24 24 24 24 24 24 25 25 25 23 23 23 15 15 15 5 5 5 
137 137 137 135 135 135 132 132 132 130 130 130 128 128 128 127 127 127 125 125 125 121 121 121 115 115 115 108 108 108 102 102 102 97 97 97 94 94 94 91 91 91 89 89 89 87 87 87 85 85 85 84 84 84 83 83 83 82 82 82 82 82 82 81 81 81 81 81 81 81 81 81 81 81 81 81 81 81 82 82 82 83 83 83 83 83 83 82 82 82 80 80 80 79 79 79 78 78 78 77 77 77 78 78 78 79 79 79 77 77 77 69 69 69 60 60 60 58 58 58 58 58 58 57 57 57 52 52 52 36 36 36 22 22 22 21 21 21 22 22 22 22 22 22 18 18 18 9 9 9 0 0 0 
139 139 139 136 136 136 134 134 134 132 132 132 130 130 130 127 127 127 124 124 124 118 118 118 113 113 113 107 107 107 102 102 102 97 97 97 93 93 93 90 90 90 87 87 87 85 85 85 84 84 84 83 83 83 82 82 82 82 82 82 81 81 81 81 81 81 81 81 81 81 81 81 81 81 81 83 83 83 85 85 85 86 86 86 86 86 86 84 84 84 81 81 81 78 78 78 75 75 75 73 73 73 72 72 72 72 72 72 68 68 68 56 56 56 44 44 44 41 41 41 43 43 43 42 42 42 36 36 36 28 28 28 21 21 21 20 20 20 21 21 21 18 18 18 13 13 13 7 7 7 2 2 2 
140 140 140 139 139 139 138 138 138 136 136 136 134 134 134 130 130 130 123 123 123 117 117 117 110 110 110 105 105 105 101 101 101 97 97 97 93 93 93 90 90 90 87 87 87 85 85 85 83 83 83 82 82 82 82 82 82 81 81 81 82 82 82 81 81 81 82 82 82 82 82 82 83 83 83 85 85 85 88 88 88 89 89 89 90 90 90 88 88 88 83 83 83 78 78 78 72 72 72 67 67 67 64 64 64 64 64 64 62 62 62 45 45 45 28 28 28 30 30 30 32 32 32 30 30 30 23 23 23 21 21 21 19 19 19 19 19 19 19 19 19 14 14 14 9 9 9 6 6 6 5 5 5 
