P3
5 3
255
31 253 13 31 253 13 31 253 13 31 253 13 31 253 13 
252 25 63 252 25 63 207 207 207 255 255 255 32 32 32 
252 25 63 252 25 63 252 25 63 252 25 63 252 25 63 

